<?xml version="1.0" encoding="UTF-8"?>
<svg id="Layer_1" data-name="Layer 1" xmlns="http://www.w3.org/2000/svg" viewBox="0 0 3432.22 997.96">
  <g id="Layer_1-2" data-name="Layer 1">
    <path d="M2668.61,386.48v-98.54c7.48-.47,14.67-.15,22.32-.2v139.7h-20.68c-21.3-32.76-42.89-65.95-64.47-99.15-.46.08-.92.16-1.38.25-.65,5.37-.2,10.83-.28,16.24-.08,5.39-.02,10.79-.02,16.18v66.42h-21.91v-139.65c6.14,0,12.31-.18,18.45.14,1.32.07,2.86,1.7,3.75,3,3.43,4.97,6.62,10.09,9.91,15.16,16.33,25.13,32.67,50.27,49.01,75.4,1.24,1.91,2.55,3.78,3.83,5.67.48-.21.97-.42,1.44-.63h.02Z"/>
    <path d="M1911.89,427.87c-6.18,0-11.97.11-17.75-.09-1.28-.04-2.75-1-3.71-1.96-1.19-1.19-1.96-2.82-2.9-4.27-18.91-29.11-37.82-58.22-56.73-87.32-1.27-1.96-2.59-3.91-3.84-5.78-.59.25-.81.31-.98.43-.15.11-.32.28-.35.45-.1.64-.21,1.28-.21,1.92-.08,31.7-.15,63.4-.23,95.1,0,.18-.2.36-.58,1.04h-20.71c-1.36-4.64-1.6-132.77-.18-139.43h19.96c21.37,32.85,42.94,66.02,64.52,99.2l1.44-.25c.08-5.42.18-10.83.21-16.25.04-5.39,0-10.78,0-16.18v-66.33h22.02v139.72h0Z"/>
    <path d="M1996.74,427.09v-138.92c1.91-.17,3.56-.45,5.21-.45,14.88-.03,29.76-.28,44.63.1,6.62.17,13.36,1.02,19.78,2.61,15.83,3.95,27.03,13.77,33.73,28.66,5.79,12.88,7.12,26.58,6.98,40.45-.1,9.93-1.17,19.77-4.2,29.34-7.3,22.99-24.17,37.25-48.19,38.53-18.7,1-37.5.28-56.25.31-.38,0-.78-.28-1.68-.64h0ZM2020.72,306.97c-1.5,9.03-1.14,96.42.26,101.06,9.19,0,18.49.62,27.68-.14,15.77-1.3,26.35-9.84,30.89-25.16,1.46-4.92,2.44-10.06,3-15.16,1.31-11.89.57-23.68-3.13-35.13-4.45-13.77-13.65-22.46-28.18-24.09-10.01-1.12-20.15-.96-30.51-1.38h0Z"/>
    <path d="M1369.85,427.89c-6.85,0-12.63.03-18.41-.02-1.45-.01-2.9-.22-4.66-.36v-139.45c2.22-.13,4.1-.35,5.99-.35,15.95-.03,31.92-.17,47.87.08,5.34.08,10.84.57,15.97,1.94,25.23,6.72,33.52,28.34,30.12,49.35-2.09,12.89-9.08,22.62-20.53,29.05-1.27.71-2.51,1.48-4.22,2.5,9.24,18.94,18.35,37.63,27.77,56.94h-26.26c-2.66-5.62-5.32-11.24-7.96-16.87-5.02-10.74-10.13-21.43-14.96-32.26-1.44-3.25-3.34-4.45-6.88-4.33-7.72.25-15.46.08-23.83.08v53.69h0ZM1369.94,355.2c10.89,0,21.01.28,31.11-.09,7.34-.28,13.94-2.95,18.33-9.31,9.9-14.35,1.92-35.51-15.19-37.92-11.1-1.56-22.61-.3-34.24-.3v47.62h0Z"/>
    <path d="M2913.65,287.7h12.71c13.8,0,27.61-.33,41.4.15,6.59.23,13.44,1.07,19.63,3.22,16.56,5.75,25.33,18.16,26.63,35.47,1.43,18.96-5.75,33.63-23.03,42.68-.56.29-1.05.71-2.2,1.51,4.59,9.39,9.2,18.81,13.8,28.24,4.52,9.25,9.03,18.51,13.88,28.46h-26.09c-.91-1.76-2.05-3.79-3.03-5.89-6.66-14.25-13.41-28.46-19.85-42.81-1.58-3.52-3.61-4.73-7.37-4.61-7.68.26-15.39.08-23.71.08v53.28h-22.76v-139.77h0ZM2936.78,307.28v47.61c11.53,0,22.69.44,33.79-.17,6.33-.35,11.96-3.5,15.7-9.08,10.23-15.25.79-36.6-17.39-38.2-10.44-.91-21.03-.16-32.1-.16Z"/>
    <path d="M3157.5,358.33c-.76,9.16-.69,18.76-2.47,28-5.52,28.69-28.05,45.74-57.98,44.38-5.99-.27-12.12-.93-17.85-2.59-21.27-6.14-33.25-21.25-37.06-42.35-3.47-19.18-3.68-38.74.47-57.89,5.67-26.18,25.37-42.16,52.08-42.71,7.26-.15,14.81.18,21.78,2,22.15,5.78,34.5,21.21,38.68,43.13,1.72,9.03,1.6,18.42,2.35,28.03h0ZM3133.72,358.24c-.18-.01-.35-.03-.52-.04,0-4.31.11-8.62-.03-12.93-.25-7.82-1.57-15.42-5.19-22.47-6.1-11.91-16.12-17.8-29.23-17.83-13.07-.03-23.51,5.52-29.26,17.63-2.44,5.15-4.4,10.97-4.71,16.59-.69,12.44-.58,24.97-.03,37.42.22,5.02,1.83,10.22,3.87,14.87,6.59,15,21.87,22.25,37.83,18.46,15.13-3.59,22.65-14.26,25.35-28.6,1.43-7.56,1.32-15.4,1.91-23.11h0Z"/>
    <path d="M2527.71,372.04h-31.35v-18.09h53.7c.2,1.29.53,2.51.54,3.74.04,8.42.16,16.83-.02,25.24-.57,25.63-17.2,44.07-42.65,47.19-9.02,1.1-18.06,1.1-27.03-.86-18.55-4.05-31.4-14.89-37.74-32.75-2.42-6.83-4.33-14.19-4.57-21.38-.47-13.97-.67-28.11.98-41.95,2.18-18.24,11-33.37,28.05-41.73,19.13-9.37,38.82-9.27,57.93.39,12.67,6.41,20.09,17.29,23.37,31.02.34,1.43.25,2.95.39,4.78h-22.38c-.33-.7-.72-1.43-1.02-2.19-5.31-13.42-14.91-20.21-29.12-20.56-14.04-.35-25,6.72-30.68,19.61-3.02,6.85-4.16,14.1-4.26,21.44-.15,9.91.25,19.83.59,29.74.09,2.56.68,5.12,1.27,7.63,6.04,25.83,26.85,31.03,45.42,25.72,10.95-3.14,17.44-10.88,18.52-22.44.42-4.47.07-9.01.07-14.53v-.02Z"/>
    <path d="M2858.48,372.12h-30.31c-1.45-6.21-.71-11.92-.59-18.35,18-.62,35.78-.16,53.88-.3.25,1.85.62,3.29.62,4.72.05,8.2.16,16.4-.01,24.6-.55,25.68-17.06,44.1-42.53,47.3-9.01,1.13-18.06,1.12-27.03-.82-18.83-4.08-31.69-15.12-38.06-33.25-2.12-6.04-3.75-12.49-4.17-18.85-1.09-16.55-2.19-33.21,1.73-49.59,6.27-26.24,26.04-41.93,53.07-42.59,11.19-.27,21.94,1.24,31.88,6.69,12.69,6.95,20.35,17.66,23.54,31.66.28,1.22.18,2.54.28,4.21h-22.38c-.59-1.35-1.27-2.87-1.91-4.41-3.94-9.51-11.04-15.23-21.04-17.31-19.32-4.02-35.33,5.35-39.82,24.63-4.2,18.02-4.21,36.51.06,54.54,4.54,19.15,20.32,28.65,39.77,25.24,15.57-2.73,23.71-12.25,23.97-28.08.04-2.59-.03-5.18-.13-7.76-.03-.59-.4-1.17-.83-2.3h-.01Z"/>
    <path d="M1080.7,391.54h22.81c2.5,9.24,8.72,15.17,17.75,17.85,10.65,3.16,21.34,3.23,31.52-1.85,6.65-3.32,10.45-8.88,10.94-16.42.44-6.85-2.05-12.5-8.17-15.7-4.73-2.47-9.87-4.28-15.01-5.79-7.23-2.13-14.67-3.53-21.94-5.56-4.55-1.27-9.07-2.83-13.37-4.78-27.13-12.23-26.57-47.51-7.56-62.42,4.51-3.54,9.69-6.67,15.06-8.59,14.45-5.17,29.3-5.2,43.83-.32,13.13,4.42,22.83,12.85,27.17,26.52.45,1.43.76,2.92.98,4.4.15,1.03.03,2.11.03,3.53h-21.46c-.23-.25-.62-.5-.79-.87-7.73-16.98-29.39-23.37-45.26-13.3-5.39,3.42-8.76,8.13-9.3,14.72-.53,6.43,1.66,11.67,7.15,14.86,4.04,2.35,8.55,4.07,13.06,5.39,7.23,2.13,14.67,3.51,21.94,5.54,5.17,1.44,10.3,3.17,15.27,5.24,30.29,12.59,26.44,52.14,6.3,66.09-6.87,4.76-14.31,7.92-22.52,9.31-13.14,2.2-26.26,2.33-39.02-1.96-14.41-4.84-24.6-14.04-28.4-29.27-.5-2.02-.62-4.14-.98-6.62h-.01Z"/>
    <path d="M2351.87,322.53h-21.85c-.32-.4-.83-.82-1.08-1.36-7.71-16.88-30.55-22.91-46.02-12.38-10.14,6.9-13.37,24.54,2.52,31.2,6.31,2.64,13.15,4.07,19.78,5.91,4.98,1.38,10.06,2.44,15.03,3.84,3.31.93,6.6,2.04,9.77,3.37,13.79,5.79,22.77,15.35,23.74,30.98,1.05,17.03-5.24,30.34-20.22,39.03-11.01,6.38-23.15,7.85-35.6,7.68-9.36-.13-18.48-1.54-27.02-5.64-11.53-5.53-19.4-14.16-22.55-26.76-.32-1.25-.56-2.52-.73-3.8-.11-.84-.02-1.71-.02-2.97h22.28c.27.54.74,1.24.99,2,2.5,7.52,7.77,12.35,15,15.04,10.51,3.91,21.16,4.02,31.58-.19,7.85-3.17,12.45-9.07,12.89-17.77.33-6.61-2.14-12.06-8-15.14-4.72-2.49-9.85-4.35-14.98-5.87-7.23-2.14-14.68-3.51-21.93-5.58-4.95-1.41-9.92-3.05-14.54-5.29-25.78-12.5-23.87-43.9-10.99-57.81,5.57-6.01,12.11-10.46,19.82-12.97,14.36-4.68,28.93-4.91,43.25-.13,13.15,4.38,22.93,12.73,27.27,26.39.76,2.4.98,4.98,1.6,8.24h0Z"/>
    <path d="M3187.09,287.9h22.71c.1,2.56.28,5.03.28,7.5.02,26.76-.02,53.51.05,80.26.01,3.65,0,7.45.98,10.91,1.2,4.28,2.79,8.72,5.31,12.32,7.25,10.37,22.33,14.35,36.26,10.21,11.74-3.48,19.51-13.41,20.5-26.32.2-2.57.18-5.17.19-7.76.01-26.54,0-53.07,0-79.62v-7.32h22.98c.16,1.85.47,3.7.47,5.54.03,28.7-.15,57.39.06,86.09.22,29.81-20.94,49.13-47.98,50.61-7.66.42-15.61.14-23.1-1.38-23.39-4.74-38.68-22.84-39.06-46.65-.47-30.41-.11-60.84-.09-91.26,0-.83.21-1.65.42-3.14h0Z"/>
    <path d="M3332.51,288.05c1.55-.15,2.61-.33,3.67-.33,17.46-.01,34.91-.14,52.36.11,4.46.06,9.05.83,13.34,2.09,21.41,6.27,32.62,26.31,29.95,48.99-2.83,24.09-19.83,39.03-44.16,39.41-10.31.16-20.63.03-31.65.03-.93,16.42.1,32.48-.62,49.26-7.63.51-15.04.26-22.89.16v-139.72ZM3355.71,358.86c10.87,0,21,.56,31.03-.15,12.37-.86,20.33-9.68,21.17-22.07.15-2.14.15-4.31.04-6.45-.68-13.37-9.1-22.09-22.42-22.88-6.01-.36-12.06-.16-18.08-.19-3.81-.02-7.62,0-11.74,0v51.74Z"/>
    <path d="M2137.39,288.03h86.77v19.15c-20.88.42-41.88-.04-63.47.26-.97,13.28-.21,26.1-.5,39.73h60.1v18.89h-59.62v41.9h63.5c.66,6.65.26,12.78.28,18.83-4.79,1.33-77.03,1.77-87.08.56v-139.31h0Z"/>
    <path d="M1286,389.46h-49c-4.11,12.61-8.21,25.24-12.4,38.1h-23.69c7.56-23.63,15.88-46.58,23.76-69.67,7.92-23.22,15.97-46.4,24.04-69.83h26.4c15.95,46.34,31.92,92.71,48.05,139.56h-24.76c-4.03-12.4-8.13-25.02-12.4-38.16h0ZM1262.3,313.1c-.48-.07-.96-.14-1.44-.21-6.08,19.11-12.16,38.21-18.38,57.77h38.06c-6.2-19.57-12.22-38.56-18.23-57.56h0Z"/>
    <path d="M1657.12,427.5c16.19-47.01,32.1-93.22,48.05-139.54h26.33c15.89,46.14,31.85,92.49,48.19,139.93h-24.78c-4.23-13.03-8.33-25.68-12.47-38.41h-49c-4.04,12.43-8.14,25.06-12.35,38.02h-23.97,0ZM1698.89,370.69h38c-6.09-19.65-11.98-38.72-18.35-57.64-.45.05-.9.1-1.35.16-6.04,18.97-12.08,37.94-18.3,57.48Z"/>
    <path d="M1987.82,586.85c-3.89-6.84-5.87-13.55-5.62-20.88.52-15.19,9.73-28.04,24.23-32.61,16.67-5.25,32.19-1.26,47.81,6.78-2.21,5.06-4.25,9.72-6.45,14.76-2.59-1.1-4.74-1.97-6.86-2.93-6.38-2.88-13-4.46-20.06-4.26-14.04.39-22.49,11.84-18.3,25.31,1,3.22,2.7,6.41,4.79,9.05,3.2,4.04,6.87,7.75,10.62,11.29,11.13,10.52,22.4,20.89,33.64,31.3,1.37,1.27,2.88,2.4,4.65,3.87,5.27-9.99,6.11-20.54,7.9-31.47,5.28,2.03,10.25,3.94,15.53,5.96.16,13.55-3.25,26.1-8.77,38.75,5,4.66,9.98,9.32,15.48,14.45-3.43,4.49-6.76,8.84-10.42,13.63-5.26-4.72-10.2-9.16-15.18-13.63-.68.26-1.36.35-1.8.72-18.12,15.05-38.75,16.76-60.39,10.52-26.69-7.69-35.86-32.2-28.48-55.76,3.12-9.96,9.15-17.98,17.7-24.88v.02ZM1999.25,599.64c-10.08,9.92-14.28,21.33-10.7,34.79,3.33,12.52,13.24,17.23,24.99,19.17.64.11,1.27.25,1.91.29,11.62.66,22.11-1.96,31.16-10.63-15.76-14.51-31.23-28.76-47.36-43.61h0Z"/>
    <path d="M1539.58,427.57h-26.54c-16.06-46.34-32.05-92.53-48.44-139.81,5.01-.02,9.19-.04,13.37-.05,4.3,0,8.61,0,13.58,0,11.6,37.88,23.17,75.65,34.74,113.42l1.29-.11c11.43-37.5,22.86-75,34.41-112.87h25.04c-.21,4.81-41.54,126.36-47.45,139.43h0Z"/>
    <path d="M1716.17,703.53c1.75-4.22,3.48-8.35,5.4-13,4.1,1.64,7.84,3.14,11.58,4.62,8.26,3.28,16.74,3.84,25.39,1.91,11.82-2.62,17.66-9.84,17.75-21.93.03-3.17,0-6.35,0-10.16-2.09.79-3.51,1.19-4.8,1.84-20.86,10.59-55.94,1.43-62.35-33.76-1.8-9.88-1.63-19.69.91-29.49,7.95-30.65,42.84-41.37,66.11-27.46,1.47.88,2.98,1.68,4.66,2.62,1.28-1.91,2.47-3.67,3.88-5.77,1.44-.1,3.12-.27,4.79-.33,1.71-.06,3.42-.01,5.84-.01.1,2.66.26,4.95.26,7.24.02,31.28-.38,62.56.15,93.82.37,22.08-13.32,34.21-29.92,38.17-16.24,3.88-31.64,1.1-46.56-5.72-.58-.26-1.13-.64-1.64-1.02-.33-.25-.58-.61-1.47-1.58h.01ZM1776.31,620.09c0-7.32-.12-14.66.06-21.97.08-3.11-.88-5.2-3.51-6.97-15.89-10.67-36.75-4.04-43.03,13.95-3.68,10.55-3.34,21.25.57,31.66,6.38,17,25.65,23.2,41.06,13.54,3.38-2.12,5.18-4.57,4.95-8.87-.38-7.09-.1-14.21-.1-21.32h0Z"/>
    <path d="M1462.92,668.19h-10.06c-1.29-1.99-2.56-3.96-4.09-6.32-1.5.79-2.99,1.47-4.36,2.35-23.35,14.88-57.91,4.1-65.99-25.66-3.18-11.71-3.6-23.48-.42-35.15,8.43-30.99,40.26-38.21,59.22-30.53,1.96.79,3.96,1.5,6.83,2.58v-44.09c6.63-.66,12.53-1.24,18.88-1.87v138.7h0ZM1444.17,620.39c0-7.54-.08-15.07.04-22.6.04-2.85-.88-4.79-3.28-6.47-15-10.52-35.94-4.64-42.63,12.32-4.37,11.07-4.11,22.43.11,33.45,6.55,17.13,26.45,22.98,41.74,12.66,2.74-1.84,4.19-3.92,4.09-7.39-.21-7.31-.06-14.64-.06-21.96h0Z"/>
    <path d="M2425.68,668.03h-18.43v-136.75c5.94-.67,11.65-1.31,18.19-2.05v53.27c2.69-1.61,4.25-2.48,5.75-3.45,8.25-5.4,17.1-9.06,27.1-9.52,17.03-.78,28.53,8.37,31.35,25.17.61,3.6.98,7.29,1,10.94.1,19.19.06,38.38.03,57.57,0,1.46-.24,2.93-.4,4.75h-18.72v-7.29c0-17.46.08-34.93-.06-52.39-.03-4.06-.45-8.21-1.4-12.15-1.64-6.78-6.03-10.16-13.09-10.22-3.17-.03-6.42.64-9.5,1.48-2.45.67-4.79,1.94-7.05,3.18-9.85,5.41-14.77,13.73-14.76,24.95v52.53h0Z"/>
    <path d="M3135.57,624.75h-66.38c-1.86,14.38,9.22,27.75,24.04,29.51,8.71,1.03,17.21.34,25.3-3.44,3.11-1.46,6.31-2.7,10.21-4.35,2.01,4.5,3.97,8.88,6.07,13.58-12.18,7.7-24.99,11.37-38.97,10.54-4.49-.27-9.03-.92-13.4-2.01-16.46-4.1-27.18-14.5-31.9-30.72-3.92-13.44-3.37-26.93,1.59-40.03,9.17-24.2,38.88-35.35,61.88-23.39,7.39,3.84,12.43,9.9,15.97,17.27,4.87,10.14,6.38,20.88,5.61,33.06h0ZM3116.59,611.51c-1.07-16.48-10.72-25.54-24.99-25.06-14.23.47-23.14,13.92-22.25,25.06h47.24Z"/>
    <path d="M1503.42,624.74c-.98,12.67,7.89,28.04,24.74,29.6,8.74.81,17.2.11,25.27-3.68,3.1-1.46,6.3-2.69,9.9-4.21,2,4.55,3.87,8.83,5.89,13.43-6.95,5.05-14.59,7.83-22.58,9.54-10.74,2.3-21.5,1.73-31.98-1.42-14.96-4.49-24.85-14.45-29.38-29.32-4.15-13.61-3.71-27.32,1.27-40.67,9.06-24.26,38.65-35.56,61.75-23.69,10.27,5.28,15.87,14.34,19.17,24.96,2.44,7.87,3.38,16,2.56,25.02-7.15.92-14.42.29-21.63.4-7.55.11-15.1.03-22.65.03h-22.34ZM1503.43,611.49h47.37c.42-13.89-8.64-24.26-21.55-24.98-14.53-.81-24.4,8.54-25.82,24.98h0Z"/>
    <path d="M2704.42,624.82h-66.54c-1.43,14.76,9.43,27.73,24.28,29.46,8.71,1.02,17.21.3,25.29-3.5,3.1-1.46,6.31-2.69,10.18-4.33,1.99,4.57,3.92,8.96,5.97,13.65-12.26,7.66-25.06,11.37-39.05,10.49-4.28-.27-8.6-.89-12.76-1.89-17.29-4.18-28.22-15.06-32.78-32.2-3.36-12.64-2.83-25.24,1.55-37.56,8.83-24.82,38.17-36.51,61.78-24.74,6.18,3.08,10.84,7.77,14.34,13.63,6.64,11.13,8.46,23.27,7.75,37h0ZM2685.31,611.48c-.52-15.33-9.82-25.11-23.37-25.04-13.9.08-23.61,10.06-24.02,25.04h47.4,0Z"/>
    <path d="M2210.74,667.77c-.79-2.52-1.49-4.76-2.41-7.72-2.17,1.34-4.08,2.5-5.98,3.7-11.23,7.03-23.21,8.93-35.92,4.95-12.14-3.8-18-12.64-19.28-24.91-1.29-12.3,3.95-22.57,14.31-28.17,6.23-3.37,12.98-4.47,19.97-4.44,7.51.03,15.02,0,22.39,0,2.83-14.5-4.93-24.55-18.72-23.92-6.79.31-13.51,2.35-20.22,3.79-2.06.44-3.99,1.44-6.67,2.44-1.82-4.97-3.57-9.71-5.22-14.19.58-.77.76-1.26,1.1-1.42,13.51-6.6,27.62-9.82,42.55-6.41,15.05,3.43,27.9,15.7,27.54,34.33-.36,18.53-.08,37.08-.08,55.62v6.35h-13.37ZM2204.89,623.88c-7.56,0-14.2-.03-20.84.01-1.93.01-3.88.04-5.79.32-8.97,1.3-14.73,8.74-13.9,17.85.77,8.51,7.22,13.85,16.58,13.45,9.1-.4,16.36-4.78,22.53-11.14.8-.83,1.32-2.26,1.36-3.43.15-5.33.06-10.67.06-17.07h0Z"/>
    <path d="M2880.04,572.91h18.79v7.02c0,17.25-.07,34.51.06,51.77.03,4.07.3,8.22,1.19,12.17,1.82,8.07,6.76,11.83,14.88,11.27,11.37-.78,20.14-7.17,28.29-14.35,1.23-1.08,1.17-3.97,1.19-6.03.08-18.12.05-36.24.05-54.36v-7.37h18.79v94.83h-12.8c-1.1-3.39-2.33-7.17-3.71-11.41-2.4,1.7-4.27,3.09-6.21,4.4-9.27,6.25-19.13,10.72-30.67,10.52-15.27-.26-24.81-7.48-28.52-22.21-.94-3.73-1.53-7.66-1.55-11.5-.15-20.28-.07-40.55-.06-60.83,0-1.05.15-2.11.28-3.94h0Z"/>
    <path d="M1839.11,668.09h-17.81c-1.32-4.95-1.82-82.31-.63-94.94h12.59c1.01,3.19,2.15,6.81,3.53,11.19,1.7-1.1,3.24-2.03,4.69-3.07,8.74-6.22,18.06-11.14,29.03-11.55,4.26-.16,8.72.03,12.81,1.12,12.48,3.31,17.71,12.89,19.8,24.67.67,3.8.92,7.73.94,11.6.09,18.56.06,37.13.03,55.69,0,1.66-.32,3.32-.52,5.25h-18.27c-.11-2.45-.31-4.74-.31-7.02-.03-17.48.07-34.97-.08-52.45-.03-4.07-.43-8.22-1.34-12.17-1.65-7.1-6.16-10.78-13.53-10.45-4.4.2-9.02,1.31-13.03,3.12-4.86,2.2-9.15,5.63-13.74,8.45-3.3,2.03-4.26,4.88-4.23,8.7.16,18.13.07,36.26.07,54.39v7.47h0Z"/>
    <path d="M1582.58,662.35c2.02-4.62,3.8-8.71,5.54-12.71,6.96,1.84,13.5,3.83,20.16,5.25,6,1.28,12.04.62,17.83-1.51,4.25-1.56,7.77-4.08,8.44-8.91.68-4.9-2.08-8.43-5.96-10.64-4.64-2.66-9.7-4.58-14.57-6.84-6.63-3.07-13.57-5.62-19.8-9.37-8.28-4.99-13.05-12.5-11.98-22.69,1.1-10.47,6.93-17.58,16.53-21.3,17.54-6.78,34.08-3.49,50.56,5.4-2.14,4.62-3.99,8.63-5.92,12.81-3.99-1.43-7.32-3.08-10.84-3.79-5.44-1.11-11-1.87-16.54-2.24-4.2-.28-8.06,1.4-11.28,4.16-4.85,4.16-4.98,10.09.24,13.69,4.02,2.78,8.72,4.62,13.21,6.67,5.09,2.32,10.5,4.02,15.39,6.69,4.3,2.35,8.52,5.22,11.99,8.65,11.75,11.6,9.46,30.12-4.5,38.97-7.17,4.55-15.26,5.84-23.49,6.23-9.83.47-19.3-1.56-28.44-5.1-2.14-.83-4.1-2.1-6.59-3.41h0Z"/>
    <path d="M2796.56,579.53c-1.97,4.59-3.72,8.69-5.65,13.19-2.87-1.06-5.2-2.23-7.67-2.77-6.08-1.33-12.17-2.99-18.33-3.39-10.33-.66-18.64,3.82-23.71,12.86-8.03,14.28-7.89,28.94.19,43.15,4.34,7.65,11.45,11.48,20.32,11.87,7.87.35,15.49-.7,22.77-3.82,1.75-.75,3.55-1.38,6.02-2.33,1.89,4.5,3.68,8.76,5.53,13.15-5.87,4.55-12.39,5.96-18.83,7.61-8.95,2.29-17.91,2.56-26.89.35-18.63-4.58-31.85-20.08-33.64-40.53-.63-7.22-.41-14.76.97-21.85,5.25-27.1,28.6-39.78,53.42-36.34,8.72,1.21,17.32,3.38,25.52,8.86h-.01Z"/>
    <path d="M2387.98,579.52c-1.89,4.57-3.58,8.67-5.41,13.12-2.78-.96-4.93-1.91-7.17-2.44-5.63-1.31-11.25-3.05-16.97-3.51-13.69-1.1-23.25,5.05-28.35,17.76-4.46,11.1-4.32,22.36.27,33.37,4.61,11.04,12.98,16.67,25.17,16.74,9.05.04,17.42-2.38,26.21-6.37,1.97,4.45,3.84,8.67,5.69,12.83-.58.73-.87,1.43-1.38,1.69-14.06,7.09-28.77,10.46-44.36,6.58-15.66-3.89-25.95-13.93-31.08-29.15-3.81-11.29-4.17-22.83-1.41-34.42,6.35-26.62,29.29-38.34,53.24-35.06,8.72,1.19,17.3,3.39,25.56,8.86h0Z"/>
    <path d="M1633.46,427.56h-22.5v-139.48h21.99c1.27,4.67,1.76,127.64.5,139.48Z"/>
    <path d="M2406.48,427.56h-22.49v-139.48h22c1.26,4.69,1.73,127.97.49,139.48Z"/>
    <path d="M2805.69,573.93h12.66v-23.75c6.4-1.51,12.18-2.88,18.84-4.46,1.14,9.31,0,18.28.78,27.86h16.95c2.01,5,3.82,9.48,5.97,14.84h-22.64c-.22,2.17-.53,3.82-.54,5.46-.04,14.02-.05,28.05,0,42.07.01,2.79.04,5.65.57,8.38,1.53,8.02,7.55,11.92,15.73,10.43,1.89-.35,3.75-.85,6.38-1.44,1.62,4.49,3.24,9.02,5.06,14.05-11.1,5.41-21.94,5.94-32.6.71-9.91-4.86-14.01-13.74-14.14-24.4-.2-15.75-.06-31.5-.06-47.25v-7.77h-12.98v-14.74h0Z"/>
    <path d="M2602.24,653.3c1.62,4.67,3.13,9.07,4.6,13.32-17.72,12.72-43.48,1.8-46.03-19.06-.37-2.98-.44-6.02-.45-9.03-.04-14.01-.02-28.02-.02-42.02v-7.81c-4.46-.2-8.44-.37-13-.57v-13.97h12.35c1.4-8.21.05-15.96,1.02-24.12,5.8-1.38,11.58-2.76,18.23-4.35.67,9.35,0,18.28.45,27.85h17.1c2.03,4.92,3.87,9.39,6.09,14.75h-22.79c-.23,2.28-.54,3.93-.54,5.58-.04,14.23-.07,28.45.03,42.67.02,2.78.26,5.62.91,8.31,1.92,7.92,7.41,11.38,15.41,9.96,1.9-.34,3.77-.85,6.65-1.5h0Z"/>
    <path d="M2247.14,572.82h10.26c1.94,4.61,3.92,9.31,6.16,14.62,9.96-6.1,18.96-13.78,31.92-14.87,1.36,4.97,2.67,9.81,4.09,15.03-11.88,1.63-21.21,7.21-29.95,14.1-2.77,2.18-3.97,4.58-3.93,8.22.19,17.48.09,34.97.07,52.45,0,1.69-.19,3.39-.32,5.51h-18.3v-95.07h0Z"/>
    <path d="M3006.42,668.15h-18.84c-.4-31.76-.12-63.33-.2-95.22h10.74c1.93,4.63,3.9,9.35,6.07,14.55,10.02-6.22,19.04-13.94,31.86-14.84,1.38,4.87,2.7,9.54,4.14,14.63-3.63.97-7.17,1.26-10.06,2.79-6.83,3.61-13.34,7.81-19.97,11.79-3.12,1.87-3.85,4.68-3.82,8.24.16,16.83.07,33.67.07,50.51v7.54h0Z"/>
    <path d="M1690.3,668.34c-5.69,0-10.42.02-15.16-.01-1.03,0-2.06-.21-3.44-.36v-94.92h18.74c-.04,31.8.17,63.36-.15,95.3h0Z"/>
    <path d="M2513.39,572.94h17.61c1.44,4.86,1.62,88.66.16,95.07h-17.09c-1.39-4.91-1.96-79.89-.68-95.07h0Z"/>
    <path d="M2522.09,555.7c-6.57-.08-11.65-5.42-11.57-12.13.09-6.76,5.27-11.77,11.99-11.6,6.79.18,11.73,5.28,11.62,12.02-.1,6.57-5.47,11.8-12.04,11.72h0Z"/>
    <path d="M1692.47,544.02c-.12,6.55-5.52,11.78-12.07,11.68-6.57-.1-11.63-5.45-11.53-12.18.11-6.76,5.3-11.75,12.02-11.56,6.78.2,11.7,5.32,11.58,12.06h0Z"/>
  </g>
  <g id="Layer_2" data-name="Layer 2">
    <path d="M536.24,997.75v-122.9c4.43-.64,8.87-1.32,13.32-1.9,140.65-18.31,260.34-116.24,306.51-250.68,16.26-47.35,23.39-96.06,19.92-145.93-7.68-110.1-54.41-200.45-139.55-270.75-4.32-3.57-6-7.02-5.97-12.65.26-43.54.14-87.08.14-130.62v-6.28c7.51,3.89,14.39,7.03,20.86,10.85,84.44,49.79,149.16,118.26,193.85,205.55,23.07,45.07,38.61,92.68,47.16,142.55,6.58,38.4,8.92,77.11,6.1,115.97-9.18,126.29-58.13,234.74-147.86,324.08-69.72,69.42-153.49,113.52-249.72,133.9-20.81,4.41-41.89,7.06-63.06,8.99-.46.04-.94-.11-1.69-.2h0Z"/>
    <path d="M268.97,938.03c-6.99-3.69-13.34-6.78-19.44-10.32-53.53-30.95-100.86-69.33-140.11-117.32-43.6-53.3-73.48-113.65-91.71-179.89C3.57,579.17-2.21,526.81.76,473.7c6.43-114.95,47.02-216.47,122.56-303.42C189.17,94.49,271.02,43.51,367.77,16.57c29.15-8.12,58.85-13.31,89.01-15.89,2.15-.18,4.3-.42,6.82-.68v123.17c-4.62.67-9.23,1.36-13.85,2-81.64,11.35-152.46,45.39-211.69,102.62-56.85,54.93-92.71,121.59-108.12,199.19-6.82,34.32-8.94,68.98-5.65,103.77,10.12,106.99,56.91,194.61,140.09,262.68,3.33,2.73,4.73,5.33,4.71,9.68-.18,39.32-.1,78.65-.1,117.98v16.94h0Z"/>
    <path d="M463.49,320.9c-3.85.71-7.49,1.33-11.11,2.04-18.89,3.71-32.75,20.47-32.91,39.55-.05,6.56,2.28,12.2,5.92,17.41,5.59,8.01,12.73,14.53,21.13,19.34,8.76,5.02,17.77,9.69,26.99,13.78,44.31,19.64,87.46,41.46,128.58,67.19,18.49,11.57,36.33,23.97,51.58,39.76,22.13,22.91,38.38,49.2,45.42,80.51,9.81,43.68,1.89,84.5-21.73,122.21-18.16,28.99-43.24,50.28-74.88,63.41-16.4,6.8-33.7,10.74-51.18,13.76-4.8.83-9.62,1.59-14.4,2.37-1.19-3.87-1.68-113.54-.58-124.96,2.92-.59,5.98-1.28,9.08-1.83,20.2-3.63,34.44-19.19,34.8-39.46.3-16.74-7.33-29.64-22.26-37.51-26.7-14.07-53.57-27.82-80.37-41.71-30.99-16.06-62.14-31.83-92.93-48.28-46.09-24.63-75.2-62.73-84.92-114.04-10.54-55.67,4.82-104.58,43.7-145.77,23.04-24.41,51.68-39.16,84.34-46.21,11.67-2.52,23.41-4.68,35.03-6.99,1.36,4.06,1.85,115.15.7,125.42h0Z"/>
    <path d="M462.8,996.93c-23.22,1.47-97.3-13.1-121.64-23.89v-381.65h122c1.27,4.96.95,398.27-.36,405.55h0Z"/>
    <path d="M536.16,406.71V.86c1.64,0,3.26-.16,4.84.02,14.56,1.68,29.19,2.95,43.65,5.26,24,3.84,47.49,9.92,70.61,17.45.95.31,1.88.69,3.08,1.12v381.5c-3.6,1.1-111.16,1.58-122.18.49h0Z"/>
  </g>
</svg>