<?xml version="1.0" encoding="UTF-8"?>
<svg id="Layer_1" data-name="Layer 1" xmlns="http://www.w3.org/2000/svg" viewBox="0 0 2026.58 2022.93">
  <g id="Layer_2" data-name="Layer 2">
    <path d="M1087.01,2022.51v-249.13c8.99-1.29,17.99-2.68,27.01-3.85,285.11-37.11,527.73-235.63,621.32-508.14,32.96-95.98,47.42-194.73,40.37-295.81-15.57-223.19-110.29-406.33-282.88-548.82-8.76-7.23-12.17-14.24-12.1-25.64.52-88.25.29-176.51.29-264.77v-12.72c15.23,7.88,29.16,14.25,42.28,21.99,171.17,100.93,302.35,239.72,392.94,416.66,46.77,91.35,78.26,187.86,95.59,288.95,13.34,77.84,18.09,156.3,12.36,235.08-18.61,255.99-117.84,475.83-299.73,656.94-141.32,140.72-311.14,230.12-506.2,271.43-42.18,8.93-84.91,14.32-127.82,18.23-.94.09-1.91-.22-3.43-.41h0Z"/>
    <path d="M545.23,1901.46c-14.16-7.48-27.04-13.75-39.41-20.91-108.5-62.73-204.45-140.54-284.02-237.82-88.38-108.04-148.94-230.37-185.91-364.64C7.24,1174.02-4.48,1067.89,1.54,960.23c13.04-233.02,95.31-438.79,248.44-615.05C383.46,191.53,549.38,88.19,745.49,33.59c59.09-16.45,119.29-26.98,180.42-32.22,4.36-.37,8.72-.86,13.82-1.37v249.68c-9.36,1.35-18.71,2.75-28.08,4.05-165.49,23.01-309.04,92-429.11,208.02-115.23,111.34-187.92,246.48-219.17,403.77-13.82,69.57-18.12,139.82-11.45,210.34,20.51,216.88,115.37,394.49,283.97,532.47,6.75,5.53,9.59,10.8,9.55,19.62-.37,79.71-.21,159.43-.21,239.15v34.36Z"/>
    <path d="M939.54,650.49c-7.8,1.43-15.18,2.69-22.52,4.13-38.3,7.52-66.39,41.5-66.71,80.17-.11,13.3,4.62,24.73,12,35.3,11.34,16.24,25.8,29.45,42.83,39.21,17.75,10.18,36.02,19.65,54.72,27.94,89.81,39.82,177.29,84.04,260.64,136.2,37.48,23.45,73.64,48.59,104.55,80.6,44.85,46.44,77.8,99.74,92.06,163.19,19.89,88.54,3.84,171.29-44.04,247.73-36.81,58.77-87.65,101.93-151.79,128.53-33.24,13.79-68.31,21.77-103.74,27.89-9.74,1.69-19.51,3.22-29.18,4.81-2.42-7.85-3.4-230.15-1.18-253.31,5.91-1.2,12.13-2.59,18.4-3.71,40.95-7.35,69.81-38.89,70.54-79.98.61-33.93-14.86-60.09-45.13-76.04-54.13-28.53-108.6-56.39-162.92-84.55-62.82-32.56-125.96-64.52-188.37-97.86-93.43-49.92-152.44-127.15-172.13-231.17-21.36-112.85,9.78-212,88.59-295.49,46.71-49.48,104.75-79.37,170.97-93.68,23.65-5.11,47.45-9.48,71-14.16,2.76,8.23,3.75,233.41,1.42,254.24h0Z"/>
    <path d="M938.13,2020.84c-47.07,2.97-197.23-26.55-246.57-48.43v-773.64h247.3c2.58,10.06,1.93,807.33-.73,822.08h0Z"/>
    <path d="M1086.83,824.42V1.74c3.33,0,6.61-.32,9.81.05,29.52,3.41,59.18,5.98,88.49,10.67,48.64,7.78,96.27,20.11,143.13,35.38,1.93.63,3.82,1.39,6.24,2.28v773.32c-7.29,2.22-225.33,3.2-247.67.99h0Z"/>
  </g>
</svg>