<?xml version="1.0" encoding="UTF-8"?>
<svg xmlns="http://www.w3.org/2000/svg" viewBox="0 0 3840 3840">
  <g id="Layer_1" data-name="Layer 1">
    <path d="M2576.04,2886.34v-156.2c11.86-.75,23.26-.24,35.38-.31v221.44h-32.78c-33.77-51.93-67.98-104.54-102.19-157.16-.73.13-1.46.26-2.19.4-1.03,8.52-.31,17.17-.44,25.75-.13,8.55-.03,17.1-.03,25.65v105.29h-34.73v-221.37c9.74,0,19.52-.28,29.25.22,2.09.11,4.54,2.7,5.95,4.75,5.43,7.88,10.5,16,15.71,24.03,25.89,39.84,51.78,79.69,77.68,119.52,1.97,3.03,4.04,5.99,6.07,8.98.76-.33,1.53-.67,2.29-1Z"/>
    <path d="M1376.56,2951.94c-9.8,0-18.98.18-28.14-.14-2.03-.07-4.36-1.59-5.88-3.11-1.89-1.89-3.1-4.47-4.59-6.77-29.98-46.14-59.95-92.28-89.93-138.41-2.02-3.11-4.1-6.19-6.08-9.16-.94.4-1.29.49-1.56.68-.24.17-.51.45-.55.71-.16,1.01-.33,2.03-.33,3.04-.12,50.25-.23,100.5-.36,150.75,0,.29-.31.57-.92,1.65h-32.82c-2.15-7.36-2.53-210.46-.29-221.02h31.64c33.87,52.07,68.07,104.65,102.27,157.24l2.28-.4c.12-8.59.28-17.17.33-25.76.06-8.55.01-17.09.01-25.64v-78.97c0-8.49,0-16.98,0-26.17h34.91v221.48Z"/>
    <path d="M1511.05,2950.71v-220.2c3.02-.27,5.64-.71,8.26-.72,23.58-.05,47.18-.44,70.74.16,10.49.27,21.18,1.61,31.35,4.14,25.09,6.26,42.84,21.82,53.46,45.43,9.18,20.42,11.28,42.13,11.06,64.12-.16,15.74-1.85,31.33-6.66,46.5-11.57,36.44-38.31,59.04-76.38,61.08-29.64,1.59-59.44.45-89.16.49-.61,0-1.23-.45-2.67-1.01ZM1549.07,2760.3c-2.38,14.32-1.8,152.84.42,160.19,14.57,0,29.31.98,43.87-.22,25-2.06,41.77-15.59,48.96-39.88,2.31-7.8,3.86-15.94,4.75-24.03,2.07-18.84.9-37.53-4.96-55.69-7.05-21.83-21.63-35.6-44.67-38.18-15.86-1.77-31.94-1.52-48.36-2.19Z"/>
    <path d="M517.36,2951.97c-10.86,0-20.02.04-29.18-.03-2.3-.02-4.6-.35-7.39-.57v-221.04c3.52-.21,6.5-.55,9.49-.55,25.29-.04,50.59-.27,75.88.12,8.47.13,17.18.9,25.32,3.07,40,10.66,53.13,44.92,47.74,78.22-3.31,20.44-14.4,35.85-32.54,46.05-2.01,1.13-3.98,2.35-6.69,3.96,14.65,30.03,29.09,59.65,44.02,90.26h-41.63c-4.21-8.91-8.44-17.81-12.62-26.74-7.96-17.02-16.06-33.97-23.71-51.13-2.29-5.15-5.3-7.05-10.91-6.87-12.24.4-24.5.12-37.78.12v85.11ZM517.5,2836.75c17.26,0,33.3.45,49.31-.15,11.64-.44,22.1-4.68,29.06-14.76,15.7-22.75,3.04-56.28-24.08-60.1-17.6-2.48-35.84-.47-54.28-.47v75.48Z"/>
    <path d="M2964.46,2729.76c7.24,0,13.69,0,20.14,0,21.88,0,43.77-.52,65.62.23,10.45.36,21.31,1.7,31.11,5.11,26.25,9.12,40.15,28.78,42.21,56.22,2.26,30.06-9.12,53.31-36.51,67.65-.88.46-1.66,1.13-3.48,2.39,7.27,14.88,14.58,29.82,21.88,44.77,7.16,14.67,14.31,29.34,22,45.11h-41.35c-1.44-2.79-3.25-6-4.81-9.33-10.56-22.59-21.26-45.12-31.47-67.86-2.5-5.58-5.72-7.5-11.68-7.3-12.18.41-24.39.12-37.59.12v84.45h-36.08v-221.55ZM3001.13,2760.8v75.47c18.27,0,35.96.7,53.56-.27,10.04-.56,18.96-5.54,24.89-14.39,16.21-24.18,1.25-58.02-27.56-60.55-16.55-1.45-33.33-.26-50.89-.26Z"/>
    <path d="M3350.99,2841.72c-1.2,14.52-1.1,29.73-3.92,44.39-8.75,45.47-44.46,72.51-91.9,70.34-9.49-.43-19.21-1.48-28.29-4.1-33.72-9.73-52.7-33.69-58.75-67.13-5.5-30.4-5.84-61.4.74-91.76,8.99-41.5,40.22-66.83,82.55-67.7,11.51-.24,23.48.29,34.53,3.17,35.11,9.16,54.68,33.62,61.31,68.36,2.73,14.32,2.54,29.2,3.72,44.43ZM3313.3,2841.57c-.28-.02-.55-.04-.83-.06,0-6.83.18-13.67-.04-20.49-.4-12.39-2.49-24.44-8.22-35.62-9.67-18.88-25.56-28.22-46.34-28.27-20.72-.05-37.27,8.75-46.38,27.95-3.87,8.16-6.97,17.39-7.47,26.3-1.1,19.72-.92,39.58-.04,59.32.35,7.95,2.9,16.2,6.14,23.57,10.44,23.77,34.66,35.27,59.96,29.26,23.98-5.69,35.9-22.6,40.18-45.33,2.26-11.98,2.1-24.41,3.03-36.64Z"/>
    <path d="M2352.7,2863.44h-49.69v-28.68h85.12c.31,2.04.84,3.98.85,5.93.07,13.34.26,26.68-.03,40.01-.9,40.63-27.27,69.86-67.6,74.8-14.29,1.75-28.63,1.74-42.84-1.37-29.41-6.42-49.78-23.61-59.82-51.91-3.84-10.83-6.86-22.5-7.24-33.89-.74-22.14-1.06-44.56,1.56-66.5,3.45-28.91,17.43-52.9,44.46-66.14,30.32-14.86,61.53-14.69,91.82.62,20.09,10.16,31.84,27.41,37.04,49.17.54,2.26.4,4.67.62,7.58h-35.47c-.52-1.11-1.14-2.26-1.62-3.47-8.41-21.28-23.64-32.04-46.16-32.59-22.25-.55-39.62,10.65-48.63,31.08-4.79,10.86-6.59,22.35-6.76,33.98-.23,15.71.4,31.43.93,47.14.14,4.05,1.08,8.12,2.01,12.1,9.57,40.95,42.56,49.19,72,40.77,17.36-4.97,27.64-17.24,29.35-35.57.66-7.08.11-14.28.11-23.03Z"/>
    <path d="M2877.01,2863.57h-48.04c-2.3-9.84-1.13-18.89-.94-29.08,28.53-.99,56.71-.26,85.41-.47.4,2.94.98,5.21.99,7.48.08,13,.25,26-.02,38.99-.87,40.7-27.05,69.91-67.41,74.98-14.28,1.79-28.63,1.78-42.84-1.3-29.84-6.47-50.24-23.96-60.33-52.71-3.36-9.58-5.95-19.8-6.61-29.88-1.73-26.23-3.47-52.64,2.74-78.6,9.94-41.59,41.27-66.47,84.12-67.51,17.73-.43,34.77,1.97,50.54,10.61,20.11,11.01,32.26,28,37.32,50.19.44,1.94.28,4.03.44,6.68h-35.48c-.93-2.14-2.01-4.55-3.02-6.99-6.24-15.08-17.5-24.14-33.35-27.44-30.63-6.38-56,8.48-63.12,39.04-6.66,28.57-6.67,57.88.1,86.46,7.19,30.36,32.21,45.42,63.04,40.01,24.68-4.33,37.58-19.42,38-44.51.07-4.1-.05-8.21-.21-12.3-.04-.94-.64-1.85-1.31-3.65Z"/>
    <path d="M59.01,2894.36h36.15c3.97,14.64,13.82,24.04,28.14,28.29,16.88,5.01,33.83,5.12,49.96-2.93,10.54-5.26,16.56-14.07,17.34-26.03.7-10.86-3.25-19.82-12.95-24.88-7.5-3.91-15.65-6.79-23.79-9.18-11.46-3.37-23.26-5.6-34.77-8.82-7.21-2.02-14.37-4.49-21.19-7.57-43.01-19.38-42.11-75.31-11.99-98.95,7.15-5.61,15.36-10.57,23.87-13.62,22.9-8.2,46.44-8.25,69.47-.5,20.82,7.01,36.19,20.37,43.06,42.03.72,2.27,1.21,4.63,1.55,6.98.24,1.64.05,3.35.05,5.59h-34.01c-.37-.4-.99-.8-1.25-1.38-12.26-26.91-46.59-37.04-71.75-21.08-8.55,5.42-13.88,12.89-14.74,23.33-.84,10.19,2.63,18.5,11.34,23.56,6.41,3.72,13.56,6.45,20.7,8.55,11.46,3.37,23.26,5.56,34.78,8.78,8.2,2.29,16.33,5.03,24.2,8.3,48.02,19.96,41.91,82.65,9.98,104.76-10.89,7.54-22.69,12.56-35.7,14.75-20.83,3.49-41.62,3.69-61.85-3.1-22.84-7.67-38.99-22.26-45.02-46.4-.8-3.2-.99-6.56-1.56-10.5Z"/>
    <path d="M2073.98,2784.96h-34.63c-.51-.63-1.32-1.3-1.71-2.16-12.22-26.76-48.43-36.31-72.95-19.63-16.08,10.93-21.19,38.9,4,49.46,10,4.19,20.84,6.45,31.35,9.37,7.9,2.19,15.94,3.86,23.83,6.08,5.25,1.48,10.46,3.23,15.49,5.34,21.86,9.17,36.1,24.33,37.63,49.11,1.66,27-8.3,48.09-32.05,61.87-17.45,10.12-36.7,12.44-56.43,12.17-14.84-.2-29.29-2.44-42.83-8.94-18.27-8.77-30.75-22.45-35.74-42.41-.5-1.98-.89-4-1.16-6.03-.17-1.33-.03-2.71-.03-4.71h35.31c.43.86,1.17,1.96,1.57,3.17,3.96,11.92,12.31,19.58,23.78,23.84,16.66,6.19,33.54,6.37,50.06-.3,12.44-5.02,19.74-14.38,20.44-28.16.53-10.47-3.4-19.12-12.68-24-7.48-3.94-15.61-6.89-23.74-9.3-11.46-3.39-23.27-5.56-34.76-8.84-7.85-2.24-15.73-4.84-23.05-8.39-40.86-19.82-37.84-69.59-17.42-91.64,8.83-9.53,19.2-16.58,31.41-20.56,22.76-7.42,45.85-7.79,68.56-.21,20.84,6.95,36.34,20.18,43.23,41.83,1.21,3.81,1.55,7.89,2.53,13.06Z"/>
    <path d="M3397.9,2730.08h36c.16,4.05.45,7.97.45,11.89.03,42.41-.03,84.82.08,127.22.02,5.78,0,11.81,1.55,17.29,1.9,6.79,4.42,13.82,8.41,19.53,11.5,16.43,35.39,22.74,57.48,16.19,18.61-5.52,30.92-21.25,32.5-41.72.32-4.08.29-8.2.3-12.3.02-42.07.01-84.13.01-126.2,0-3.67,0-7.34,0-11.6h36.43c.26,2.93.74,5.86.75,8.78.05,45.49-.23,90.97.1,136.46.35,47.25-33.19,77.87-76.06,80.23-12.15.67-24.74.22-36.62-2.19-37.07-7.52-61.32-36.21-61.91-73.94-.75-48.21-.18-96.44-.15-144.66,0-1.31.34-2.62.67-4.97Z"/>
    <path d="M3628.41,2730.32c2.46-.23,4.13-.53,5.81-.53,27.67-.02,55.34-.22,83,.17,7.07.1,14.34,1.32,21.14,3.32,33.94,9.94,51.71,41.71,47.48,77.66-4.49,38.19-31.44,61.86-70,62.47-16.35.26-32.7.04-50.17.04-1.47,26.02.16,51.48-.98,78.09-12.1.81-23.84.42-36.28.25v-221.47ZM3665.19,2842.56c17.23,0,33.28.89,49.18-.23,19.6-1.37,32.22-15.34,33.56-34.98.23-3.4.24-6.83.07-10.23-1.08-21.2-14.42-35.01-35.54-36.27-9.53-.57-19.11-.25-28.66-.3-6.04-.03-12.08,0-18.61,0v82.01Z"/>
    <path d="M1734,2730.28h137.54v30.35c-33.09.66-66.38-.07-100.6.42-1.54,21.05-.33,41.37-.79,62.97h95.27v29.95h-94.5v66.42h100.66c1.05,10.54.42,20.26.45,29.84-7.59,2.11-122.1,2.81-138.03.88v-220.83Z"/>
    <path d="M384.45,2891.06h-77.67c-6.51,19.99-13.02,40.01-19.66,60.39h-37.55c11.99-37.46,25.17-73.84,37.66-110.43,12.56-36.81,25.31-73.55,38.1-110.69h41.85c25.29,73.46,50.59,146.96,76.16,221.22h-39.24c-6.39-19.66-12.88-39.66-19.65-60.49ZM346.87,2770.02c-.76-.11-1.52-.22-2.28-.33-9.64,30.29-19.28,60.57-29.14,91.57h60.33c-9.83-31.02-19.37-61.13-28.9-91.24Z"/>
    <path d="M972.71,2951.35c25.66-74.51,50.88-147.76,76.17-221.18h41.73c25.19,73.14,50.49,146.61,76.39,221.81h-39.28c-6.71-20.66-13.21-40.7-19.77-60.89h-77.67c-6.4,19.71-12.91,39.73-19.58,60.26h-37.99ZM1038.92,2861.3h60.23c-9.66-31.14-18.99-61.38-29.08-91.37-.71.08-1.43.16-2.14.25-9.57,30.07-19.15,60.14-29.01,91.12Z"/>
    <path d="M1496.91,3203.95c-6.17-10.84-9.31-21.48-8.91-33.09.83-24.07,15.42-44.45,38.4-51.69,26.42-8.32,51.03-1.99,75.78,10.74-3.5,8.02-6.73,15.4-10.23,23.4-4.11-1.75-7.52-3.13-10.87-4.64-10.11-4.56-20.6-7.07-31.79-6.76-22.25.62-35.65,18.77-29,40.12,1.59,5.1,4.28,10.16,7.59,14.34,5.08,6.4,10.89,12.28,16.84,17.9,17.65,16.67,35.51,33.12,53.32,49.61,2.17,2.01,4.56,3.8,7.37,6.13,8.35-15.83,9.68-32.56,12.53-49.88,8.37,3.22,16.24,6.24,24.61,9.45.25,21.48-5.15,41.37-13.9,61.42,7.92,7.39,15.82,14.77,24.53,22.91-5.44,7.11-10.72,14.02-16.52,21.61-8.33-7.48-16.17-14.52-24.06-21.6-1.08.41-2.16.56-2.86,1.14-28.73,23.86-61.42,26.57-95.73,16.68-42.3-12.19-56.85-51.04-45.15-88.39,4.94-15.78,14.5-28.5,28.06-39.43ZM1515.03,3224.22c-15.98,15.72-22.63,33.81-16.96,55.15,5.28,19.85,20.98,27.31,39.61,30.38,1.01.17,2.02.4,3.03.46,18.42,1.05,35.05-3.11,49.39-16.85-24.98-23-49.5-45.59-75.07-69.13Z"/>
    <path d="M786.4,2951.47h-42.07c-25.45-73.46-50.81-146.67-76.78-221.62,7.94-.03,14.56-.07,21.19-.08,6.82-.01,13.65,0,21.53,0,18.39,60.05,36.73,119.92,55.07,179.78l2.04-.17c18.12-59.44,36.24-118.89,54.54-178.92,13.31,0,26.5,0,39.69,0-.33,7.62-65.85,200.29-75.21,221.02Z"/>
    <path d="M1066.32,3388.9c2.78-6.69,5.51-13.24,8.56-20.6,6.5,2.6,12.43,4.98,18.36,7.33,13.1,5.2,26.54,6.08,40.25,3.03,18.74-4.16,28-15.6,28.14-34.76.04-5.03,0-10.07,0-16.11-3.32,1.26-5.57,1.88-7.61,2.91-33.06,16.79-88.67,2.26-98.83-53.52-2.85-15.66-2.59-31.21,1.44-46.74,12.6-48.59,67.9-65.57,104.79-43.53,2.33,1.39,4.73,2.66,7.38,4.15,2.03-3.02,3.92-5.82,6.15-9.14,2.28-.16,4.94-.43,7.6-.52,2.71-.1,5.42-.02,9.26-.02.16,4.21.41,7.84.41,11.47.03,49.58-.6,99.16.23,148.72.58,35-21.11,54.22-47.42,60.51-25.75,6.15-50.16,1.74-73.8-9.07-.92-.42-1.79-1.01-2.6-1.62-.53-.4-.92-.97-2.33-2.5ZM1161.64,3256.63c0-11.61-.19-23.23.09-34.83.12-4.93-1.39-8.25-5.57-11.05-25.18-16.92-58.26-6.41-68.2,22.11-5.83,16.73-5.29,33.68.91,50.18,10.12,26.94,40.66,36.77,65.09,21.46,5.36-3.36,8.21-7.24,7.85-14.06-.6-11.24-.16-22.53-.16-33.8Z"/>
    <path d="M664.89,3332.88h-15.95c-2.05-3.16-4.06-6.27-6.49-10.02-2.37,1.26-4.74,2.33-6.91,3.72-37.02,23.58-91.8,6.5-104.61-40.67-5.04-18.56-5.7-37.22-.66-55.72,13.36-49.12,63.81-60.57,93.87-48.4,3.11,1.26,6.27,2.38,10.83,4.09v-69.89c10.51-1.04,19.86-1.97,29.92-2.97v219.86ZM635.16,3257.11c0-11.95-.12-23.89.06-35.83.07-4.51-1.4-7.6-5.2-10.26-23.77-16.67-56.97-7.36-67.58,19.53-6.92,17.54-6.51,35.55.18,53.03,10.38,27.15,41.92,36.42,66.17,20.07,4.34-2.92,6.64-6.22,6.48-11.71-.33-11.59-.1-23.21-.1-34.81Z"/>
    <path d="M2190.97,3332.63h-29.21v-216.76c9.41-1.06,18.46-2.08,28.83-3.25v84.44c4.27-2.55,6.74-3.93,9.11-5.47,13.08-8.56,27.11-14.36,42.96-15.09,26.99-1.24,45.22,13.27,49.69,39.89.96,5.71,1.56,11.55,1.59,17.34.16,30.42.09,60.83.05,91.25,0,2.32-.38,4.65-.64,7.53h-29.67c0-4.23,0-7.89,0-11.55,0-27.68.13-55.37-.1-83.05-.05-6.44-.71-13.02-2.22-19.26-2.6-10.75-9.56-16.11-20.75-16.2-5.03-.04-10.18,1.01-15.06,2.34-3.89,1.06-7.59,3.08-11.17,5.04q-23.42,12.86-23.4,39.55c0,23.92,0,47.85,0,71.77,0,3.67,0,7.34,0,11.49Z"/>
    <path d="M3316.23,3264.03h-105.22c-2.95,22.79,14.61,43.98,38.11,46.78,13.8,1.64,27.28.54,40.1-5.46,4.93-2.31,10.01-4.28,16.18-6.9,3.19,7.13,6.29,14.07,9.62,21.53-19.31,12.2-39.61,18.03-61.77,16.7-7.12-.43-14.32-1.46-21.24-3.19-26.09-6.5-43.08-22.98-50.57-48.7-6.21-21.31-5.34-42.69,2.52-63.46,14.53-38.36,61.63-56.03,98.08-37.08,11.71,6.09,19.7,15.7,25.31,27.38,7.72,16.07,10.11,33.1,8.89,52.4ZM3286.15,3243.04c-1.69-26.12-16.99-40.49-39.61-39.73-22.55.75-36.68,22.06-35.27,39.73h74.88Z"/>
    <path d="M729.08,3264.01c-1.56,20.08,12.5,44.45,39.22,46.92,13.86,1.28,27.27.18,40.06-5.83,4.91-2.31,9.99-4.26,15.69-6.67,3.17,7.21,6.14,14,9.34,21.29-11.01,8.01-23.12,12.41-35.79,15.12-17.02,3.65-34.08,2.74-50.7-2.25-23.72-7.11-39.39-22.9-46.57-46.48-6.58-21.57-5.88-43.3,2.02-64.46,14.36-38.45,61.26-56.37,97.88-37.55,16.28,8.37,25.16,22.73,30.38,39.56,3.87,12.48,5.35,25.36,4.06,39.66-11.34,1.46-22.85.46-34.28.64-11.96.18-23.93.04-35.9.04h-35.41ZM729.1,3243.01h75.08c.66-22.01-13.7-38.45-34.16-39.59-23.03-1.28-38.67,13.53-40.92,39.59Z"/>
    <path d="M2632.81,3264.13h-105.47c-2.27,23.4,14.94,43.96,38.48,46.69,13.81,1.61,27.28.47,40.08-5.55,4.92-2.31,10.01-4.27,16.13-6.86,3.16,7.24,6.21,14.21,9.46,21.63-19.43,12.15-39.73,18.02-61.9,16.63-6.79-.43-13.63-1.41-20.23-3-27.41-6.62-44.73-23.87-51.96-51.04-5.33-20.03-4.48-40.01,2.46-59.54,13.99-39.34,60.51-57.87,97.93-39.21,9.79,4.88,17.18,12.31,22.73,21.6,10.53,17.64,13.41,36.88,12.28,58.65ZM2602.52,3242.98c-.83-24.3-15.57-39.8-37.04-39.69-22.03.12-37.42,15.95-38.08,39.69h75.13Z"/>
    <path d="M1850.26,3332.22c-1.25-3.99-2.36-7.55-3.82-12.23-3.44,2.12-6.47,3.97-9.48,5.86-17.8,11.15-36.79,14.15-56.93,7.84-19.24-6.03-28.53-20.04-30.56-39.48-2.04-19.49,6.26-35.78,22.68-44.65,9.88-5.34,20.57-7.08,31.66-7.03,11.9.05,23.81.01,35.49.01,4.49-22.99-7.82-38.92-29.67-37.92-10.76.49-21.41,3.73-32.05,6-3.26.7-6.33,2.28-10.58,3.87-2.89-7.88-5.66-15.39-8.27-22.49.92-1.22,1.2-1.99,1.74-2.25,21.42-10.46,43.78-15.56,67.45-10.16,23.85,5.44,44.22,24.89,43.65,54.41-.57,29.38-.12,58.78-.12,88.17v10.06h-21.19ZM1840.99,3262.65c-11.98,0-22.51-.04-33.04.02-3.06.02-6.15.07-9.17.51-14.22,2.06-23.35,13.86-22.04,28.29,1.22,13.49,11.45,21.96,26.28,21.32,14.42-.63,25.93-7.57,35.72-17.66,1.27-1.31,2.1-3.58,2.15-5.43.23-8.45.1-16.92.1-27.06Z"/>
    <path d="M2911.19,3181.85h29.79c0,3.89,0,7.51,0,11.12,0,27.35-.11,54.71.09,82.06.05,6.45.47,13.03,1.88,19.29,2.88,12.79,10.71,18.75,23.59,17.87,18.03-1.23,31.92-11.37,44.85-22.75,1.95-1.71,1.86-6.3,1.88-9.56.13-28.72.08-57.44.08-86.16,0-3.68,0-7.36,0-11.68h29.78v150.32h-20.29c-1.74-5.37-3.69-11.36-5.88-18.08-3.8,2.7-6.77,4.9-9.84,6.97-14.7,9.91-30.33,16.99-48.62,16.68-24.21-.41-39.33-11.86-45.2-35.2-1.49-5.92-2.42-12.14-2.46-18.23-.24-32.14-.11-64.28-.09-96.42,0-1.67.23-3.34.44-6.24Z"/>
    <path d="M1261.19,3332.72h-28.23c-2.1-7.85-2.89-130.47-1-150.49h19.95c1.6,5.06,3.41,10.8,5.6,17.73,2.69-1.75,5.13-3.21,7.44-4.86,13.86-9.86,28.62-17.66,46.01-18.31,6.76-.25,13.82.05,20.3,1.77,19.78,5.25,28.07,20.44,31.38,39.1,1.07,6.03,1.46,12.25,1.49,18.39.15,29.42.09,58.85.04,88.27,0,2.63-.51,5.27-.82,8.32h-28.96c-.18-3.89-.49-7.51-.49-11.13-.04-27.71.11-55.43-.12-83.14-.05-6.45-.68-13.03-2.13-19.29-2.62-11.26-9.77-17.09-21.44-16.56-6.98.32-14.29,2.07-20.65,4.95-7.7,3.49-14.51,8.92-21.78,13.39-5.23,3.22-6.76,7.74-6.71,13.79.26,28.74.11,57.48.11,86.22,0,3.69,0,7.37,0,11.84Z"/>
    <path d="M854.56,3323.63c3.2-7.33,6.02-13.8,8.78-20.14,11.04,2.92,21.4,6.07,31.96,8.32,9.51,2.03,19.08.98,28.26-2.4,6.74-2.48,12.32-6.47,13.38-14.13,1.08-7.76-3.3-13.36-9.44-16.87-7.36-4.21-15.37-7.26-23.09-10.84-10.51-4.87-21.51-8.91-31.38-14.85-13.13-7.91-20.69-19.81-18.99-35.96,1.75-16.6,10.98-27.87,26.2-33.76,27.81-10.75,54.02-5.53,80.14,8.56-3.39,7.33-6.33,13.68-9.38,20.3-6.32-2.27-11.6-4.88-17.18-6.01-8.63-1.76-17.43-2.96-26.22-3.55-6.65-.45-12.78,2.22-17.88,6.59-7.69,6.6-7.9,15.99.38,21.7,6.38,4.4,13.82,7.33,20.94,10.57,8.07,3.67,16.65,6.37,24.4,10.61,6.82,3.73,13.5,8.28,19.01,13.71,18.62,18.38,14.99,47.74-7.14,61.77-11.37,7.21-24.19,9.25-37.24,9.88-15.58.75-30.6-2.47-45.08-8.09-3.39-1.31-6.5-3.33-10.44-5.4Z"/>
    <path d="M2778.87,3192.35c-3.12,7.28-5.9,13.78-8.95,20.9-4.55-1.68-8.25-3.53-12.16-4.39-9.63-2.11-19.29-4.74-29.06-5.37-16.38-1.05-29.54,6.05-37.59,20.38-12.73,22.64-12.5,45.87.3,68.4,6.88,12.12,18.15,18.19,32.21,18.81,12.48.55,24.55-1.11,36.1-6.06,2.77-1.19,5.63-2.19,9.54-3.69,3,7.14,5.84,13.88,8.77,20.84-9.31,7.21-19.64,9.45-29.84,12.06-14.19,3.63-28.39,4.05-42.63.55-29.53-7.26-50.49-31.83-53.33-64.24-1-11.44-.65-23.39,1.53-34.64,8.32-42.95,45.33-63.06,84.68-57.6,13.82,1.92,27.46,5.36,40.45,14.05Z"/>
    <path d="M2131.22,3192.32c-2.99,7.25-5.67,13.74-8.58,20.8-4.41-1.52-7.81-3.03-11.37-3.86-8.92-2.08-17.84-4.84-26.9-5.56-21.7-1.74-36.85,8.01-44.94,28.15-7.07,17.6-6.85,35.45.43,52.89,7.31,17.5,20.57,26.43,39.9,26.53,14.35.07,27.62-3.77,41.55-10.09,3.13,7.06,6.09,13.74,9.02,20.33-.92,1.16-1.38,2.27-2.19,2.68-22.28,11.24-45.6,16.58-70.32,10.43-24.82-6.17-41.14-22.08-49.27-46.21-6.04-17.9-6.61-36.19-2.23-54.56,10.06-42.19,46.43-60.77,84.39-55.58,13.82,1.89,27.43,5.37,40.52,14.05Z"/>
    <path d="M935.21,2951.46h-35.66v-221.09h34.86c2.01,7.4,2.79,202.32.8,221.09Z"/>
    <path d="M2160.54,2951.46h-35.65v-221.09h34.88c1.99,7.43,2.75,202.85.77,221.09Z"/>
    <path d="M2793.34,3183.46h20.07v-37.64c10.14-2.4,19.3-4.57,29.87-7.07,1.81,14.75-.01,28.98,1.23,44.16h26.87c3.19,7.92,6.05,15.02,9.47,23.53h-35.88c-.35,3.44-.84,6.05-.85,8.66-.06,22.23-.08,44.46,0,66.68.02,4.43.07,8.95.9,13.28,2.43,12.71,11.96,18.89,24.94,16.54,3-.55,5.95-1.34,10.12-2.29,2.56,7.12,5.14,14.29,8.02,22.27-17.6,8.57-34.77,9.42-51.68,1.13-15.71-7.7-22.2-21.78-22.42-38.68-.31-24.96-.09-49.93-.1-74.89,0-3.72,0-7.44,0-12.31h-20.57v-23.37Z"/>
    <path d="M2470.84,3309.27c2.56,7.4,4.96,14.38,7.29,21.12-28.09,20.17-68.92,2.85-72.97-30.21-.58-4.73-.69-9.54-.71-14.31-.07-22.2-.03-44.41-.03-66.61v-12.38c-7.07-.31-13.38-.59-20.61-.9v-22.15h19.57c2.22-13.02.08-25.3,1.61-38.23,9.19-2.19,18.35-4.38,28.89-6.9,1.06,14.82,0,28.98.72,44.14h27.11c3.22,7.8,6.14,14.88,9.65,23.38h-36.12c-.36,3.62-.85,6.23-.85,8.85-.06,22.55-.11,45.09.04,67.64.03,4.4.42,8.91,1.45,13.17,3.04,12.56,11.74,18.04,24.42,15.78,3.01-.54,5.98-1.34,10.54-2.38Z"/>
    <path d="M1907.96,3181.71h16.26c3.08,7.31,6.22,14.76,9.77,23.17,15.78-9.67,30.06-21.84,50.59-23.57,2.15,7.88,4.23,15.55,6.49,23.82-18.83,2.59-33.62,11.43-47.48,22.35-4.39,3.46-6.3,7.26-6.23,13.03.3,27.71.15,55.43.11,83.14,0,2.68-.3,5.37-.5,8.74h-29v-150.69Z"/>
    <path d="M3111.51,3332.82h-29.86c-.63-50.34-.19-100.38-.31-150.93h17.02c3.06,7.34,6.18,14.82,9.62,23.07,15.89-9.86,30.18-22.09,50.5-23.53,2.18,7.72,4.28,15.12,6.56,23.19-5.75,1.53-11.37,2-15.95,4.43-10.82,5.73-21.15,12.38-31.65,18.69-4.94,2.97-6.1,7.42-6.05,13.06.25,26.68.11,53.37.11,80.06,0,3.68,0,7.36,0,11.95Z"/>
    <path d="M1025.31,3333.11c-9.02,0-16.52.03-24.03-.02-1.63-.01-3.27-.33-5.45-.57v-150.46h29.71c-.07,50.41.27,100.44-.24,151.06Z"/>
    <path d="M2330,3181.9h27.92c2.29,7.7,2.56,140.53.25,150.7h-27.09c-2.21-7.79-3.1-126.63-1.08-150.7Z"/>
    <path d="M2343.79,3154.57c-10.41-.12-18.47-8.59-18.34-19.23.14-10.71,8.35-18.66,19-18.39,10.76.28,18.59,8.37,18.42,19.05-.16,10.41-8.67,18.7-19.08,18.57Z"/>
    <path d="M1028.74,3136.06c-.19,10.39-8.75,18.67-19.14,18.51-10.41-.16-18.44-8.64-18.28-19.3.17-10.71,8.4-18.63,19.06-18.33,10.75.31,18.55,8.43,18.36,19.11Z"/>
  </g>
  <g id="Layer_2" data-name="Layer 2">
    <path d="M1995.21,2383.84v-249.13c8.99-1.29,17.99-2.68,27.01-3.85,285.11-37.11,527.73-235.63,621.32-508.14,32.96-95.98,47.42-194.73,40.37-295.81-15.57-223.19-110.29-406.33-282.88-548.82-8.76-7.23-12.17-14.24-12.1-25.64.52-88.25.29-176.51.29-264.77v-12.72c15.23,7.88,29.16,14.25,42.28,21.99,171.17,100.93,302.35,239.72,392.94,416.66,46.77,91.35,78.26,187.86,95.59,288.95,13.34,77.84,18.09,156.3,12.36,235.08-18.61,255.99-117.84,475.83-299.73,656.94-141.32,140.72-311.14,230.12-506.2,271.43-42.18,8.93-84.91,14.32-127.82,18.23-.94.09-1.91-.22-3.43-.41Z"/>
    <path d="M1453.43,2262.79c-14.16-7.48-27.04-13.75-39.41-20.91-108.5-62.73-204.45-140.54-284.02-237.82-88.38-108.04-148.94-230.37-185.91-364.64-28.65-104.07-40.37-210.2-34.35-317.86,13.04-233.02,95.31-438.79,248.44-615.05,133.48-153.65,299.4-256.99,495.51-311.59,59.09-16.45,119.29-26.98,180.42-32.22,4.36-.37,8.72-.86,13.82-1.37v249.68c-9.36,1.35-18.71,2.75-28.08,4.05-165.49,23.01-309.04,92-429.11,208.02-115.23,111.34-187.92,246.48-219.17,403.77-13.82,69.57-18.12,139.82-11.45,210.34,20.51,216.88,115.37,394.49,283.97,532.47,6.75,5.53,9.59,10.8,9.55,19.62-.37,79.71-.21,159.43-.21,239.15v34.34Z"/>
    <path d="M1847.74,1011.82c-7.8,1.43-15.18,2.69-22.52,4.13-38.3,7.52-66.39,41.5-66.71,80.17-.11,13.3,4.62,24.73,12,35.3,11.34,16.24,25.8,29.45,42.83,39.21,17.75,10.18,36.02,19.65,54.72,27.94,89.81,39.82,177.29,84.04,260.64,136.2,37.48,23.45,73.64,48.59,104.55,80.6,44.85,46.44,77.8,99.74,92.06,163.19,19.89,88.54,3.84,171.29-44.04,247.73-36.81,58.77-87.65,101.93-151.79,128.53-33.24,13.79-68.31,21.77-103.74,27.89-9.74,1.69-19.51,3.22-29.18,4.81-2.42-7.85-3.4-230.15-1.18-253.31,5.91-1.2,12.13-2.59,18.4-3.71,40.95-7.35,69.81-38.89,70.54-79.98.61-33.93-14.86-60.09-45.13-76.04-54.13-28.53-108.6-56.39-162.92-84.55-62.82-32.56-125.96-64.52-188.37-97.86-93.43-49.92-152.44-127.15-172.13-231.17-21.36-112.85,9.78-212,88.59-295.49,46.71-49.48,104.75-79.37,170.97-93.68,23.65-5.11,47.45-9.48,71-14.16,2.76,8.23,3.75,233.41,1.42,254.24Z"/>
    <path d="M1846.33,2382.17c-47.07,2.97-197.23-26.55-246.57-48.43v-773.64h247.3c2.58,10.06,1.93,807.33-.73,822.08Z"/>
    <path d="M1995.03,1185.75V363.07c3.33,0,6.61-.32,9.81.05,29.52,3.41,59.18,5.98,88.49,10.67,48.64,7.78,96.27,20.11,143.13,35.38,1.93.63,3.82,1.39,6.24,2.28,0,257.78,0,515.55,0,773.32-7.29,2.22-225.33,3.2-247.67.99Z"/>
  </g>
</svg>